<svg viewBox="0 0 1200 750" xmlns="http://www.w3.org/2000/svg" font-family="Arial">
  <rect width="1200" height="750" fill="#111118"/>
  <rect width="1200" height="52" fill="#1a1a24"/>
  <circle cx="28" cy="26" r="7" fill="#f87171"/><circle cx="52" cy="26" r="7" fill="#fbbf24"/><circle cx="76" cy="26" r="7" fill="#34d399"/>
  <rect x="360" y="14" width="480" height="24" rx="12" fill="#22222e"/>
  <text x="600" y="31" text-anchor="middle" font-family="Arial" font-size="13" fill="#8b8ba0">Visitor Tracking — Dashboard</text><rect x="0" y="52" width="220" height="698" fill="#1a1a24"/>
  <rect x="16" y="72" width="120" height="16" rx="8" fill="#a78bfa"/><rect x="16" y="120" width="188" height="36" rx="8" fill="none"/>
    <circle cx="38" cy="138" r="7" fill="#3f3f50"/>
    <rect x="56" y="132" width="100" height="12" rx="6" fill="#3f3f50"/><rect x="16" y="172" width="188" height="36" rx="8" fill="#a78bfa33"/>
    <circle cx="38" cy="190" r="7" fill="#a78bfa"/>
    <rect x="56" y="184" width="126" height="12" rx="6" fill="#a78bfa"/><rect x="16" y="224" width="188" height="36" rx="8" fill="none"/>
    <circle cx="38" cy="242" r="7" fill="#3f3f50"/>
    <rect x="56" y="236" width="152" height="12" rx="6" fill="#3f3f50"/><rect x="16" y="276" width="188" height="36" rx="8" fill="none"/>
    <circle cx="38" cy="294" r="7" fill="#3f3f50"/>
    <rect x="56" y="288" width="100" height="12" rx="6" fill="#3f3f50"/><rect x="16" y="328" width="188" height="36" rx="8" fill="none"/>
    <circle cx="38" cy="346" r="7" fill="#3f3f50"/>
    <rect x="56" y="340" width="126" height="12" rx="6" fill="#3f3f50"/><rect x="16" y="380" width="188" height="36" rx="8" fill="none"/>
    <circle cx="38" cy="398" r="7" fill="#3f3f50"/>
    <rect x="56" y="392" width="152" height="12" rx="6" fill="#3f3f50"/>
  <rect x="248" y="228" width="912" height="440" rx="14" fill="#1a1a24" stroke="#2e2e3c"/>
  <rect x="280" y="256" width="160" height="14" rx="7" fill="#e4e4ef" opacity="0.7"/>
  <line x1="280" y1="640" x2="1128" y2="640" stroke="#2e2e3c" stroke-width="2"/>
  <rect x="288" y="570" width="30" height="70" rx="6" fill="#22d3ee" opacity="0.5"/><rect x="340" y="520" width="30" height="120" rx="6" fill="#a78bfa" opacity="0.7"/><rect x="392" y="545" width="30" height="95" rx="6" fill="#22d3ee" opacity="0.9"/><rect x="444" y="480" width="30" height="160" rx="6" fill="#a78bfa" opacity="0.5"/><rect x="496" y="510" width="30" height="130" rx="6" fill="#22d3ee" opacity="0.7"/><rect x="548" y="450" width="30" height="190" rx="6" fill="#a78bfa" opacity="0.9"/><rect x="600" y="490" width="30" height="150" rx="6" fill="#22d3ee" opacity="0.5"/><rect x="652" y="430" width="30" height="210" rx="6" fill="#a78bfa" opacity="0.7"/><rect x="704" y="470" width="30" height="170" rx="6" fill="#22d3ee" opacity="0.9"/><rect x="756" y="405" width="30" height="235" rx="6" fill="#a78bfa" opacity="0.5"/></svg>